<mxfile host="65bd71144e">
    <diagram id="uD9Ss9uAFpr1xHXilTXu" name="ログイン">
        <mxGraphModel dx="576" dy="419" grid="1" gridSize="10" guides="1" tooltips="1" connect="1" arrows="1" fold="1" page="1" pageScale="1" pageWidth="827" pageHeight="1169" math="0" shadow="0">
            <root>
                <mxCell id="0"/>
                <mxCell id="1" parent="0"/>
                <mxCell id="Lo5zNJrsym4IysGLBa4M-8" style="edgeStyle=none;html=1;entryX=-0.006;entryY=0.548;entryDx=0;entryDy=0;entryPerimeter=0;fontSize=9;" parent="1" source="2" target="P72vRbyliiHvL0oEmRon-12" edge="1">
                    <mxGeometry relative="1" as="geometry"/>
                </mxCell>
                <mxCell id="2" value="システム管理者&lt;br&gt;" style="shape=umlActor;verticalLabelPosition=bottom;verticalAlign=top;html=1;" parent="1" vertex="1">
                    <mxGeometry x="30" y="250" width="40" height="70" as="geometry"/>
                </mxCell>
                <mxCell id="3" value="ログイン&lt;br&gt;データベース&lt;br&gt;(仮)" style="ellipse;shape=umlEntity;whiteSpace=wrap;html=1;" parent="1" vertex="1">
                    <mxGeometry x="710" y="330" width="80" height="80" as="geometry"/>
                </mxCell>
                <mxCell id="P72vRbyliiHvL0oEmRon-15" style="edgeStyle=none;html=1;entryX=-0.005;entryY=0.517;entryDx=0;entryDy=0;entryPerimeter=0;fontSize=14;" parent="1" source="P72vRbyliiHvL0oEmRon-12" target="P72vRbyliiHvL0oEmRon-14" edge="1">
                    <mxGeometry relative="1" as="geometry"/>
                </mxCell>
                <mxCell id="P72vRbyliiHvL0oEmRon-12" value="ログイン画面" style="shape=umlBoundary;whiteSpace=wrap;html=1;fontSize=12;" parent="1" vertex="1">
                    <mxGeometry x="210" y="170" width="100" height="80" as="geometry"/>
                </mxCell>
                <mxCell id="P72vRbyliiHvL0oEmRon-20" style="edgeStyle=none;html=1;fontSize=14;" parent="1" source="P72vRbyliiHvL0oEmRon-14" target="P72vRbyliiHvL0oEmRon-19" edge="1">
                    <mxGeometry relative="1" as="geometry">
                        <mxPoint x="485" y="460" as="targetPoint"/>
                    </mxGeometry>
                </mxCell>
                <mxCell id="P72vRbyliiHvL0oEmRon-14" value="&lt;font style=&quot;font-size: 14px;&quot;&gt;表示3&lt;/font&gt;" style="ellipse;shape=umlControl;whiteSpace=wrap;html=1;fontSize=12;" parent="1" vertex="1">
                    <mxGeometry x="480" y="170" width="70" height="80" as="geometry"/>
                </mxCell>
                <mxCell id="P72vRbyliiHvL0oEmRon-18" value="" style="endArrow=classic;startArrow=classic;html=1;fontSize=14;entryX=0;entryY=0.5;entryDx=0;entryDy=0;exitX=1.014;exitY=0.533;exitDx=0;exitDy=0;exitPerimeter=0;" parent="1" source="P72vRbyliiHvL0oEmRon-19" target="3" edge="1">
                    <mxGeometry width="50" height="50" relative="1" as="geometry">
                        <mxPoint x="660" y="480" as="sourcePoint"/>
                        <mxPoint x="460" y="380" as="targetPoint"/>
                    </mxGeometry>
                </mxCell>
                <mxCell id="P72vRbyliiHvL0oEmRon-22" style="edgeStyle=none;html=1;fontSize=14;" parent="1" source="P72vRbyliiHvL0oEmRon-19" target="P72vRbyliiHvL0oEmRon-21" edge="1">
                    <mxGeometry relative="1" as="geometry"/>
                </mxCell>
                <mxCell id="P72vRbyliiHvL0oEmRon-24" style="edgeStyle=none;html=1;fontSize=14;" parent="1" source="P72vRbyliiHvL0oEmRon-19" target="P72vRbyliiHvL0oEmRon-23" edge="1">
                    <mxGeometry relative="1" as="geometry"/>
                </mxCell>
                <mxCell id="P72vRbyliiHvL0oEmRon-19" value="本人情報&lt;br&gt;認証" style="ellipse;shape=umlControl;whiteSpace=wrap;html=1;fontSize=14;" parent="1" vertex="1">
                    <mxGeometry x="470" y="330" width="70" height="80" as="geometry"/>
                </mxCell>
                <mxCell id="P72vRbyliiHvL0oEmRon-21" value="ログイン&lt;br&gt;完了画面" style="shape=umlBoundary;whiteSpace=wrap;html=1;fontSize=14;" parent="1" vertex="1">
                    <mxGeometry x="160" y="330" width="100" height="80" as="geometry"/>
                </mxCell>
                <mxCell id="P72vRbyliiHvL0oEmRon-26" style="edgeStyle=none;html=1;entryX=1.017;entryY=0.508;entryDx=0;entryDy=0;entryPerimeter=0;fontSize=14;" parent="1" source="P72vRbyliiHvL0oEmRon-23" target="P72vRbyliiHvL0oEmRon-25" edge="1">
                    <mxGeometry relative="1" as="geometry"/>
                </mxCell>
                <mxCell id="P72vRbyliiHvL0oEmRon-29" style="edgeStyle=none;html=1;entryX=1.037;entryY=0.475;entryDx=0;entryDy=0;entryPerimeter=0;fontSize=14;" parent="1" source="P72vRbyliiHvL0oEmRon-23" target="P72vRbyliiHvL0oEmRon-28" edge="1">
                    <mxGeometry relative="1" as="geometry"/>
                </mxCell>
                <mxCell id="P72vRbyliiHvL0oEmRon-33" style="edgeStyle=none;html=1;entryX=1.03;entryY=0.525;entryDx=0;entryDy=0;entryPerimeter=0;fontSize=9;" parent="1" source="P72vRbyliiHvL0oEmRon-23" target="P72vRbyliiHvL0oEmRon-32" edge="1">
                    <mxGeometry relative="1" as="geometry"/>
                </mxCell>
                <mxCell id="P72vRbyliiHvL0oEmRon-23" value="エラーの表示" style="ellipse;shape=umlControl;whiteSpace=wrap;html=1;fontSize=14;" parent="1" vertex="1">
                    <mxGeometry x="450" y="450" width="70" height="80" as="geometry"/>
                </mxCell>
                <mxCell id="P72vRbyliiHvL0oEmRon-25" value="エラー画面" style="shape=umlBoundary;whiteSpace=wrap;html=1;fontSize=14;" parent="1" vertex="1">
                    <mxGeometry x="140" y="545" width="100" height="80" as="geometry"/>
                </mxCell>
                <mxCell id="P72vRbyliiHvL0oEmRon-27" value="無効な名前またはパスワードです。" style="text;html=1;align=center;verticalAlign=middle;resizable=0;points=[];autosize=1;strokeColor=none;fillColor=none;fontSize=14;" parent="1" vertex="1">
                    <mxGeometry x="190" y="490" width="250" height="30" as="geometry"/>
                </mxCell>
                <mxCell id="P72vRbyliiHvL0oEmRon-28" value="エラー画面" style="shape=umlBoundary;whiteSpace=wrap;html=1;fontSize=14;" parent="1" vertex="1">
                    <mxGeometry x="140" y="680" width="100" height="80" as="geometry"/>
                </mxCell>
                <mxCell id="P72vRbyliiHvL0oEmRon-30" value="&lt;font style=&quot;font-size: 9px;&quot;&gt;名前とパスワードを入力してください。&lt;/font&gt;" style="text;html=1;align=center;verticalAlign=middle;resizable=0;points=[];autosize=1;strokeColor=none;fillColor=none;fontSize=14;rotation=0;" parent="1" vertex="1">
                    <mxGeometry x="224" y="630" width="190" height="30" as="geometry"/>
                </mxCell>
                <mxCell id="P72vRbyliiHvL0oEmRon-32" value="エラー画面" style="shape=umlBoundary;whiteSpace=wrap;html=1;fontSize=9;" parent="1" vertex="1">
                    <mxGeometry x="150" y="820" width="100" height="80" as="geometry"/>
                </mxCell>
                <mxCell id="P72vRbyliiHvL0oEmRon-34" value="ログインに失敗しました。" style="text;html=1;align=center;verticalAlign=middle;resizable=0;points=[];autosize=1;strokeColor=none;fillColor=none;fontSize=9;" parent="1" vertex="1">
                    <mxGeometry x="310" y="750" width="130" height="20" as="geometry"/>
                </mxCell>
                <mxCell id="Lo5zNJrsym4IysGLBa4M-11" value="各自の情報を入力してログインボタンを押す" style="text;html=1;align=center;verticalAlign=middle;resizable=0;points=[];autosize=1;strokeColor=none;fillColor=none;fontSize=9;" parent="1" vertex="1">
                    <mxGeometry y="200" width="200" height="20" as="geometry"/>
                </mxCell>
            </root>
        </mxGraphModel>
    </diagram>
    <diagram id="cA67yOFR9Anl4BkKegYw" name="パス忘れ">
        <mxGraphModel dx="823" dy="599" grid="1" gridSize="10" guides="1" tooltips="1" connect="1" arrows="1" fold="1" page="1" pageScale="1" pageWidth="827" pageHeight="1169" math="0" shadow="0">
            <root>
                <mxCell id="0"/>
                <mxCell id="1" parent="0"/>
                <mxCell id="RiSwPWikIOVVvHQisLI8-2" style="edgeStyle=none;html=1;entryX=-0.02;entryY=0.55;entryDx=0;entryDy=0;entryPerimeter=0;fontSize=9;" edge="1" parent="1" source="MumzxncDqrrCHIsPgF55-1" target="RiSwPWikIOVVvHQisLI8-1">
                    <mxGeometry relative="1" as="geometry"/>
                </mxCell>
                <mxCell id="RiSwPWikIOVVvHQisLI8-4" style="edgeStyle=none;html=1;entryX=-0.027;entryY=0.55;entryDx=0;entryDy=0;entryPerimeter=0;fontSize=9;" edge="1" parent="1" source="MumzxncDqrrCHIsPgF55-1" target="RiSwPWikIOVVvHQisLI8-3">
                    <mxGeometry relative="1" as="geometry"/>
                </mxCell>
                <mxCell id="2zYQqPhOSJy3_aK5qcd4-5" style="edgeStyle=none;html=1;entryX=-0.007;entryY=0.517;entryDx=0;entryDy=0;entryPerimeter=0;fontSize=9;" edge="1" parent="1" source="MumzxncDqrrCHIsPgF55-1" target="2zYQqPhOSJy3_aK5qcd4-3">
                    <mxGeometry relative="1" as="geometry"/>
                </mxCell>
                <mxCell id="MumzxncDqrrCHIsPgF55-1" value="システム管理者&lt;br&gt;" style="shape=umlActor;verticalLabelPosition=bottom;verticalAlign=top;html=1;fontSize=9;" vertex="1" parent="1">
                    <mxGeometry x="10" y="240" width="70" height="110" as="geometry"/>
                </mxCell>
                <mxCell id="q0QZkueunMjk4VKm-HQE-4" style="edgeStyle=none;html=1;entryX=0.029;entryY=0.608;entryDx=0;entryDy=0;entryPerimeter=0;fontSize=9;" edge="1" parent="1" source="RiSwPWikIOVVvHQisLI8-1" target="q0QZkueunMjk4VKm-HQE-3">
                    <mxGeometry relative="1" as="geometry"/>
                </mxCell>
                <mxCell id="RiSwPWikIOVVvHQisLI8-1" value="ログイン画面" style="shape=umlBoundary;whiteSpace=wrap;html=1;fontSize=9;" vertex="1" parent="1">
                    <mxGeometry x="250" y="100" width="100" height="80" as="geometry"/>
                </mxCell>
                <mxCell id="q0QZkueunMjk4VKm-HQE-1" style="edgeStyle=none;html=1;entryX=-0.057;entryY=0.542;entryDx=0;entryDy=0;entryPerimeter=0;fontSize=9;" edge="1" parent="1" source="RiSwPWikIOVVvHQisLI8-3" target="QMcQ_S-JjF7Fbn48ktGr-1">
                    <mxGeometry relative="1" as="geometry"/>
                </mxCell>
                <mxCell id="RiSwPWikIOVVvHQisLI8-3" value="パス忘れ画面" style="shape=umlBoundary;whiteSpace=wrap;html=1;fontSize=9;" vertex="1" parent="1">
                    <mxGeometry x="260" y="250" width="100" height="80" as="geometry"/>
                </mxCell>
                <mxCell id="RiSwPWikIOVVvHQisLI8-5" value="メールアドレスの入力、送信" style="text;html=1;align=center;verticalAlign=middle;resizable=0;points=[];autosize=1;strokeColor=none;fillColor=none;fontSize=9;" vertex="1" parent="1">
                    <mxGeometry x="105" y="260" width="140" height="20" as="geometry"/>
                </mxCell>
                <mxCell id="2zYQqPhOSJy3_aK5qcd4-13" style="edgeStyle=none;html=1;fontSize=9;" edge="1" parent="1" source="QMcQ_S-JjF7Fbn48ktGr-1" target="2zYQqPhOSJy3_aK5qcd4-12">
                    <mxGeometry relative="1" as="geometry"/>
                </mxCell>
                <mxCell id="2zYQqPhOSJy3_aK5qcd4-16" style="edgeStyle=none;html=1;fontSize=14;exitX=0.505;exitY=1.03;exitDx=0;exitDy=0;exitPerimeter=0;" edge="1" parent="1" source="2zYQqPhOSJy3_aK5qcd4-22" target="2zYQqPhOSJy3_aK5qcd4-17">
                    <mxGeometry relative="1" as="geometry"/>
                </mxCell>
                <mxCell id="QMcQ_S-JjF7Fbn48ktGr-1" value="メアド取得" style="ellipse;shape=umlControl;whiteSpace=wrap;html=1;fontSize=9;" vertex="1" parent="1">
                    <mxGeometry x="520" y="250" width="70" height="80" as="geometry"/>
                </mxCell>
                <mxCell id="q0QZkueunMjk4VKm-HQE-2" value="パスワード忘れた場合をクリック" style="text;html=1;align=center;verticalAlign=middle;resizable=0;points=[];autosize=1;strokeColor=none;fillColor=none;fontSize=9;" vertex="1" parent="1">
                    <mxGeometry x="60" y="160" width="160" height="20" as="geometry"/>
                </mxCell>
                <mxCell id="q0QZkueunMjk4VKm-HQE-5" style="edgeStyle=none;html=1;entryX=0.613;entryY=0;entryDx=0;entryDy=0;entryPerimeter=0;fontSize=9;" edge="1" parent="1" source="q0QZkueunMjk4VKm-HQE-3" target="RiSwPWikIOVVvHQisLI8-3">
                    <mxGeometry relative="1" as="geometry"/>
                </mxCell>
                <mxCell id="q0QZkueunMjk4VKm-HQE-3" value="表示" style="ellipse;shape=umlControl;whiteSpace=wrap;html=1;fontSize=9;" vertex="1" parent="1">
                    <mxGeometry x="510" y="90" width="70" height="80" as="geometry"/>
                </mxCell>
                <mxCell id="2zYQqPhOSJy3_aK5qcd4-1" value="ユーザー" style="ellipse;shape=umlEntity;whiteSpace=wrap;html=1;" vertex="1" parent="1">
                    <mxGeometry x="720" y="250" width="80" height="80" as="geometry"/>
                </mxCell>
                <mxCell id="2zYQqPhOSJy3_aK5qcd4-2" value="" style="endArrow=classic;startArrow=classic;html=1;fontSize=9;entryX=0;entryY=0.5;entryDx=0;entryDy=0;exitX=1.01;exitY=0.567;exitDx=0;exitDy=0;exitPerimeter=0;" edge="1" parent="1" source="QMcQ_S-JjF7Fbn48ktGr-1" target="2zYQqPhOSJy3_aK5qcd4-1">
                    <mxGeometry width="50" height="50" relative="1" as="geometry">
                        <mxPoint x="580" y="350" as="sourcePoint"/>
                        <mxPoint x="630" y="300" as="targetPoint"/>
                    </mxGeometry>
                </mxCell>
                <mxCell id="2zYQqPhOSJy3_aK5qcd4-23" value="" style="edgeStyle=none;html=1;fontSize=14;startArrow=none;startFill=0;endArrow=classic;endFill=1;" edge="1" parent="1" source="2zYQqPhOSJy3_aK5qcd4-3" target="2zYQqPhOSJy3_aK5qcd4-22">
                    <mxGeometry relative="1" as="geometry"/>
                </mxCell>
                <mxCell id="2zYQqPhOSJy3_aK5qcd4-3" value="パスワード変更画面" style="shape=umlBoundary;whiteSpace=wrap;html=1;fontSize=9;" vertex="1" parent="1">
                    <mxGeometry x="260" y="440" width="100" height="80" as="geometry"/>
                </mxCell>
                <mxCell id="2zYQqPhOSJy3_aK5qcd4-6" value="各自の情報を入力して、登録を押す。" style="text;html=1;align=center;verticalAlign=middle;resizable=0;points=[];autosize=1;strokeColor=none;fillColor=none;fontSize=9;" vertex="1" parent="1">
                    <mxGeometry x="40" y="440" width="180" height="20" as="geometry"/>
                </mxCell>
                <mxCell id="2zYQqPhOSJy3_aK5qcd4-9" value="" style="endArrow=none;startArrow=classic;html=1;fontSize=9;exitX=0.94;exitY=0.267;exitDx=0;exitDy=0;exitPerimeter=0;entryX=-0.057;entryY=0.667;entryDx=0;entryDy=0;entryPerimeter=0;startFill=1;endFill=0;" edge="1" parent="1" source="2zYQqPhOSJy3_aK5qcd4-3" target="QMcQ_S-JjF7Fbn48ktGr-1">
                    <mxGeometry width="50" height="50" relative="1" as="geometry">
                        <mxPoint x="470" y="460" as="sourcePoint"/>
                        <mxPoint x="520" y="410" as="targetPoint"/>
                    </mxGeometry>
                </mxCell>
                <mxCell id="2zYQqPhOSJy3_aK5qcd4-15" style="edgeStyle=none;html=1;entryX=1.018;entryY=0.401;entryDx=0;entryDy=0;entryPerimeter=0;fontSize=14;" edge="1" parent="1" source="2zYQqPhOSJy3_aK5qcd4-12" target="2zYQqPhOSJy3_aK5qcd4-14">
                    <mxGeometry relative="1" as="geometry"/>
                </mxCell>
                <mxCell id="2zYQqPhOSJy3_aK5qcd4-12" value="エラー表示" style="ellipse;shape=umlControl;whiteSpace=wrap;html=1;fontSize=9;" vertex="1" parent="1">
                    <mxGeometry x="660" y="430" width="70" height="80" as="geometry"/>
                </mxCell>
                <mxCell id="2zYQqPhOSJy3_aK5qcd4-14" value="&lt;font style=&quot;font-size: 14px;&quot;&gt;エラー表示&lt;br&gt;内容画面&lt;/font&gt;" style="shape=umlBoundary;whiteSpace=wrap;html=1;fontSize=9;" vertex="1" parent="1">
                    <mxGeometry x="810" y="470" width="100" height="80" as="geometry"/>
                </mxCell>
                <mxCell id="2zYQqPhOSJy3_aK5qcd4-17" value="ログイン画面" style="shape=umlBoundary;whiteSpace=wrap;html=1;fontSize=9;" vertex="1" parent="1">
                    <mxGeometry x="505" y="820" width="100" height="80" as="geometry"/>
                </mxCell>
                <mxCell id="2zYQqPhOSJy3_aK5qcd4-18" value="ユーザー" style="ellipse;shape=umlEntity;whiteSpace=wrap;html=1;" vertex="1" parent="1">
                    <mxGeometry x="655" y="620" width="80" height="80" as="geometry"/>
                </mxCell>
                <mxCell id="2zYQqPhOSJy3_aK5qcd4-19" value="" style="endArrow=classic;startArrow=none;html=1;fontSize=9;startFill=0;" edge="1" parent="1" target="2zYQqPhOSJy3_aK5qcd4-20" source="2zYQqPhOSJy3_aK5qcd4-3">
                    <mxGeometry width="50" height="50" relative="1" as="geometry">
                        <mxPoint x="400.00000000000006" y="455.3599999999999" as="sourcePoint"/>
                        <mxPoint x="439.3" y="460" as="targetPoint"/>
                    </mxGeometry>
                </mxCell>
                <mxCell id="2zYQqPhOSJy3_aK5qcd4-21" style="edgeStyle=none;html=1;fontSize=14;startArrow=none;startFill=0;endArrow=classic;endFill=1;" edge="1" parent="1" source="2zYQqPhOSJy3_aK5qcd4-20" target="2zYQqPhOSJy3_aK5qcd4-18">
                    <mxGeometry relative="1" as="geometry"/>
                </mxCell>
                <mxCell id="2zYQqPhOSJy3_aK5qcd4-20" value="パスワード変更" style="ellipse;shape=umlControl;whiteSpace=wrap;html=1;fontSize=14;" vertex="1" parent="1">
                    <mxGeometry x="480" y="530" width="70" height="80" as="geometry"/>
                </mxCell>
                <mxCell id="2zYQqPhOSJy3_aK5qcd4-22" value="表示" style="ellipse;shape=umlControl;whiteSpace=wrap;html=1;fontSize=14;" vertex="1" parent="1">
                    <mxGeometry x="280" y="650" width="70" height="80" as="geometry"/>
                </mxCell>
            </root>
        </mxGraphModel>
    </diagram>
    <diagram id="APDrmOuDCQYgS2MGJ-57" name="ログアウト">
        <mxGraphModel dx="1403" dy="419" grid="1" gridSize="10" guides="1" tooltips="1" connect="1" arrows="1" fold="1" page="1" pageScale="1" pageWidth="827" pageHeight="1169" math="0" shadow="0">
            <root>
                <mxCell id="0"/>
                <mxCell id="1" parent="0"/>
                <mxCell id="qT9hUue9NYPYddr96G_X-4" style="edgeStyle=none;html=1;entryX=-0.003;entryY=0.45;entryDx=0;entryDy=0;entryPerimeter=0;fontSize=14;startArrow=none;startFill=0;endArrow=classic;endFill=1;" edge="1" parent="1" source="qT9hUue9NYPYddr96G_X-1" target="qT9hUue9NYPYddr96G_X-2">
                    <mxGeometry relative="1" as="geometry"/>
                </mxCell>
                <mxCell id="qT9hUue9NYPYddr96G_X-1" value="システム管理者" style="shape=umlActor;verticalLabelPosition=bottom;verticalAlign=top;html=1;fontSize=14;" vertex="1" parent="1">
                    <mxGeometry x="10" y="230" width="70" height="100" as="geometry"/>
                </mxCell>
                <mxCell id="qT9hUue9NYPYddr96G_X-6" style="edgeStyle=none;html=1;fontSize=9;startArrow=none;startFill=0;endArrow=classic;endFill=1;" edge="1" parent="1" source="qT9hUue9NYPYddr96G_X-2">
                    <mxGeometry relative="1" as="geometry">
                        <mxPoint x="410" y="170" as="targetPoint"/>
                    </mxGeometry>
                </mxCell>
                <mxCell id="qT9hUue9NYPYddr96G_X-2" value="ログアウト画面" style="shape=umlBoundary;whiteSpace=wrap;html=1;fontSize=14;" vertex="1" parent="1">
                    <mxGeometry x="190" y="130" width="100" height="80" as="geometry"/>
                </mxCell>
                <mxCell id="qT9hUue9NYPYddr96G_X-13" style="edgeStyle=none;html=1;entryX=1.005;entryY=0.558;entryDx=0;entryDy=0;entryPerimeter=0;fontSize=14;startArrow=none;startFill=0;endArrow=classic;endFill=1;" edge="1" parent="1" source="qT9hUue9NYPYddr96G_X-3" target="qT9hUue9NYPYddr96G_X-12">
                    <mxGeometry relative="1" as="geometry"/>
                </mxCell>
                <mxCell id="vZLUs630GkPegECfwFVu-1" style="edgeStyle=none;html=1;fontSize=14;startArrow=none;startFill=0;endArrow=classic;endFill=1;" edge="1" parent="1" source="qT9hUue9NYPYddr96G_X-3" target="vZLUs630GkPegECfwFVu-3">
                    <mxGeometry relative="1" as="geometry">
                        <mxPoint x="452" y="420" as="targetPoint"/>
                    </mxGeometry>
                </mxCell>
                <mxCell id="qT9hUue9NYPYddr96G_X-3" value="ログアウト処理" style="ellipse;shape=umlControl;whiteSpace=wrap;html=1;fontSize=14;" vertex="1" parent="1">
                    <mxGeometry x="414" y="120" width="76" height="90" as="geometry"/>
                </mxCell>
                <mxCell id="qT9hUue9NYPYddr96G_X-5" value="&lt;font style=&quot;font-size: 9px;&quot;&gt;メニューからログアウトを押す&lt;/font&gt;" style="text;html=1;align=center;verticalAlign=middle;resizable=0;points=[];autosize=1;strokeColor=none;fillColor=none;fontSize=14;" vertex="1" parent="1">
                    <mxGeometry x="30" y="170" width="150" height="30" as="geometry"/>
                </mxCell>
                <mxCell id="qT9hUue9NYPYddr96G_X-7" value="ユーザー(仮)" style="ellipse;shape=umlEntity;whiteSpace=wrap;html=1;fontSize=9;" vertex="1" parent="1">
                    <mxGeometry x="690" y="120" width="80" height="80" as="geometry"/>
                </mxCell>
                <mxCell id="qT9hUue9NYPYddr96G_X-10" value="" style="endArrow=classic;startArrow=classic;html=1;fontSize=9;entryX=0;entryY=0.5;entryDx=0;entryDy=0;" edge="1" parent="1" source="qT9hUue9NYPYddr96G_X-3" target="qT9hUue9NYPYddr96G_X-7">
                    <mxGeometry width="50" height="50" relative="1" as="geometry">
                        <mxPoint x="510" y="165" as="sourcePoint"/>
                        <mxPoint x="460" y="220" as="targetPoint"/>
                    </mxGeometry>
                </mxCell>
                <mxCell id="qT9hUue9NYPYddr96G_X-15" style="edgeStyle=none;html=1;entryX=1.03;entryY=0.525;entryDx=0;entryDy=0;entryPerimeter=0;fontSize=14;startArrow=none;startFill=0;endArrow=classic;endFill=1;" edge="1" parent="1" source="qT9hUue9NYPYddr96G_X-12" target="qT9hUue9NYPYddr96G_X-14">
                    <mxGeometry relative="1" as="geometry"/>
                </mxCell>
                <mxCell id="qT9hUue9NYPYddr96G_X-12" value="&lt;font style=&quot;font-size: 14px;&quot;&gt;表示&lt;/font&gt;" style="ellipse;shape=umlControl;whiteSpace=wrap;html=1;fontSize=9;" vertex="1" parent="1">
                    <mxGeometry x="330" y="290" width="70" height="80" as="geometry"/>
                </mxCell>
                <mxCell id="qT9hUue9NYPYddr96G_X-14" value="ログイン&lt;br&gt;画面" style="shape=umlBoundary;whiteSpace=wrap;html=1;fontSize=14;" vertex="1" parent="1">
                    <mxGeometry x="170" y="310" width="100" height="80" as="geometry"/>
                </mxCell>
                <mxCell id="vZLUs630GkPegECfwFVu-5" style="edgeStyle=none;html=1;entryX=0.997;entryY=0.567;entryDx=0;entryDy=0;entryPerimeter=0;fontSize=14;startArrow=none;startFill=0;endArrow=classic;endFill=1;" edge="1" parent="1" source="vZLUs630GkPegECfwFVu-3" target="vZLUs630GkPegECfwFVu-4">
                    <mxGeometry relative="1" as="geometry"/>
                </mxCell>
                <mxCell id="vZLUs630GkPegECfwFVu-3" value="エラー&lt;br&gt;処理" style="ellipse;shape=umlControl;whiteSpace=wrap;html=1;fontSize=14;" vertex="1" parent="1">
                    <mxGeometry x="414" y="420" width="70" height="80" as="geometry"/>
                </mxCell>
                <mxCell id="vZLUs630GkPegECfwFVu-4" value="ログアウト失敗画面" style="shape=umlBoundary;whiteSpace=wrap;html=1;fontSize=14;" vertex="1" parent="1">
                    <mxGeometry x="170" y="470" width="100" height="80" as="geometry"/>
                </mxCell>
            </root>
        </mxGraphModel>
    </diagram>
    <diagram id="nvmwMsvo3WfwLRJZODGf" name="ユーザー登録情報確認">
        <mxGraphModel dx="1403" dy="419" grid="1" gridSize="10" guides="1" tooltips="1" connect="1" arrows="1" fold="1" page="1" pageScale="1" pageWidth="827" pageHeight="1169" math="0" shadow="0">
            <root>
                <mxCell id="0"/>
                <mxCell id="1" parent="0"/>
                <mxCell id="2OwhBHev8sDwJyNuz14D-3" style="edgeStyle=none;html=1;entryX=-0.043;entryY=0.492;entryDx=0;entryDy=0;entryPerimeter=0;fontSize=14;startArrow=none;startFill=0;endArrow=classic;endFill=1;" parent="1" source="2OwhBHev8sDwJyNuz14D-1" target="2OwhBHev8sDwJyNuz14D-2" edge="1">
                    <mxGeometry relative="1" as="geometry"/>
                </mxCell>
                <mxCell id="rkJxTzPNqQ1IbLJDLVaX-1" style="edgeStyle=none;html=1;entryX=0.005;entryY=0.497;entryDx=0;entryDy=0;entryPerimeter=0;fontSize=10;startArrow=none;startFill=0;endArrow=classic;endFill=1;" parent="1" source="2OwhBHev8sDwJyNuz14D-1" target="2OwhBHev8sDwJyNuz14D-13" edge="1">
                    <mxGeometry relative="1" as="geometry"/>
                </mxCell>
                <mxCell id="2OwhBHev8sDwJyNuz14D-1" value="システム管理者" style="shape=umlActor;verticalLabelPosition=bottom;verticalAlign=top;html=1;outlineConnect=0;fontSize=14;" parent="1" vertex="1">
                    <mxGeometry x="10" y="150" width="60" height="130" as="geometry"/>
                </mxCell>
                <mxCell id="2OwhBHev8sDwJyNuz14D-2" value="ユーザー&lt;br&gt;情報確認&lt;br&gt;画面" style="shape=umlBoundary;whiteSpace=wrap;html=1;fontSize=14;" parent="1" vertex="1">
                    <mxGeometry x="260" y="60" width="100" height="80" as="geometry"/>
                </mxCell>
                <mxCell id="2OwhBHev8sDwJyNuz14D-4" value="&lt;font style=&quot;font-size: 10px;&quot;&gt;メニューからユーザー情報を選択&lt;/font&gt;" style="text;html=1;align=center;verticalAlign=middle;resizable=0;points=[];autosize=1;strokeColor=none;fillColor=none;fontSize=14;" parent="1" vertex="1">
                    <mxGeometry x="70" y="85" width="170" height="30" as="geometry"/>
                </mxCell>
                <mxCell id="2OwhBHev8sDwJyNuz14D-12" style="edgeStyle=none;html=1;fontSize=10;startArrow=none;startFill=0;endArrow=classic;endFill=1;" parent="1" source="2OwhBHev8sDwJyNuz14D-5" target="2OwhBHev8sDwJyNuz14D-11" edge="1">
                    <mxGeometry relative="1" as="geometry"/>
                </mxCell>
                <mxCell id="2OwhBHev8sDwJyNuz14D-15" style="edgeStyle=none;html=1;fontSize=10;startArrow=none;startFill=0;endArrow=classic;endFill=1;entryX=0.548;entryY=0;entryDx=0;entryDy=0;entryPerimeter=0;" parent="1" source="2OwhBHev8sDwJyNuz14D-5" target="2OwhBHev8sDwJyNuz14D-16" edge="1">
                    <mxGeometry relative="1" as="geometry">
                        <mxPoint x="525" y="310" as="targetPoint"/>
                    </mxGeometry>
                </mxCell>
                <mxCell id="2OwhBHev8sDwJyNuz14D-5" value="情報の取得" style="ellipse;shape=umlControl;whiteSpace=wrap;html=1;fontSize=10;" parent="1" vertex="1">
                    <mxGeometry x="490" y="60" width="70" height="80" as="geometry"/>
                </mxCell>
                <mxCell id="2OwhBHev8sDwJyNuz14D-7" value="登録情報" style="ellipse;shape=umlEntity;whiteSpace=wrap;html=1;fontSize=10;" parent="1" vertex="1">
                    <mxGeometry x="710" y="60" width="80" height="80" as="geometry"/>
                </mxCell>
                <mxCell id="2OwhBHev8sDwJyNuz14D-9" value="" style="endArrow=classic;startArrow=classic;html=1;fontSize=10;entryX=0;entryY=0.5;entryDx=0;entryDy=0;" parent="1" source="2OwhBHev8sDwJyNuz14D-5" target="2OwhBHev8sDwJyNuz14D-7" edge="1">
                    <mxGeometry width="50" height="50" relative="1" as="geometry">
                        <mxPoint x="630" y="240" as="sourcePoint"/>
                        <mxPoint x="680" y="190" as="targetPoint"/>
                    </mxGeometry>
                </mxCell>
                <mxCell id="2OwhBHev8sDwJyNuz14D-10" value="" style="endArrow=classic;startArrow=classic;html=1;fontSize=10;entryX=-0.005;entryY=0.542;entryDx=0;entryDy=0;entryPerimeter=0;exitX=1.023;exitY=0.55;exitDx=0;exitDy=0;exitPerimeter=0;" parent="1" source="2OwhBHev8sDwJyNuz14D-2" target="2OwhBHev8sDwJyNuz14D-5" edge="1">
                    <mxGeometry width="50" height="50" relative="1" as="geometry">
                        <mxPoint x="380" y="240" as="sourcePoint"/>
                        <mxPoint x="430" y="190" as="targetPoint"/>
                    </mxGeometry>
                </mxCell>
                <mxCell id="2OwhBHev8sDwJyNuz14D-14" style="edgeStyle=none;html=1;entryX=1.037;entryY=0.5;entryDx=0;entryDy=0;entryPerimeter=0;fontSize=10;startArrow=none;startFill=0;endArrow=classic;endFill=1;" parent="1" source="2OwhBHev8sDwJyNuz14D-11" target="2OwhBHev8sDwJyNuz14D-13" edge="1">
                    <mxGeometry relative="1" as="geometry"/>
                </mxCell>
                <mxCell id="2OwhBHev8sDwJyNuz14D-20" style="edgeStyle=none;html=1;entryX=0.51;entryY=0.042;entryDx=0;entryDy=0;entryPerimeter=0;fontSize=10;startArrow=none;startFill=0;endArrow=classic;endFill=1;" parent="1" source="2OwhBHev8sDwJyNuz14D-11" target="2OwhBHev8sDwJyNuz14D-19" edge="1">
                    <mxGeometry relative="1" as="geometry"/>
                </mxCell>
                <mxCell id="2OwhBHev8sDwJyNuz14D-11" value="情報詳細取得" style="ellipse;shape=umlControl;whiteSpace=wrap;html=1;fontSize=10;" parent="1" vertex="1">
                    <mxGeometry x="430" y="190" width="70" height="80" as="geometry"/>
                </mxCell>
                <mxCell id="2OwhBHev8sDwJyNuz14D-13" value="ユーザー情報&lt;br&gt;確認詳細画面" style="shape=umlBoundary;whiteSpace=wrap;html=1;fontSize=10;" parent="1" vertex="1">
                    <mxGeometry x="220" y="230" width="100" height="80" as="geometry"/>
                </mxCell>
                <mxCell id="2OwhBHev8sDwJyNuz14D-18" style="edgeStyle=none;html=1;entryX=0.563;entryY=0.017;entryDx=0;entryDy=0;entryPerimeter=0;fontSize=10;startArrow=none;startFill=0;endArrow=classic;endFill=1;" parent="1" source="2OwhBHev8sDwJyNuz14D-16" target="2OwhBHev8sDwJyNuz14D-17" edge="1">
                    <mxGeometry relative="1" as="geometry"/>
                </mxCell>
                <mxCell id="2OwhBHev8sDwJyNuz14D-16" value="エラー表示" style="ellipse;shape=umlControl;whiteSpace=wrap;html=1;fontSize=10;" parent="1" vertex="1">
                    <mxGeometry x="600" y="260" width="70" height="80" as="geometry"/>
                </mxCell>
                <mxCell id="2OwhBHev8sDwJyNuz14D-17" value="ユーザー一覧の&lt;br&gt;表示失敗画面" style="shape=umlBoundary;whiteSpace=wrap;html=1;fontSize=10;" parent="1" vertex="1">
                    <mxGeometry x="570" y="400" width="100" height="80" as="geometry"/>
                </mxCell>
                <mxCell id="2OwhBHev8sDwJyNuz14D-22" style="edgeStyle=none;html=1;entryX=1.023;entryY=0.517;entryDx=0;entryDy=0;entryPerimeter=0;fontSize=10;startArrow=none;startFill=0;endArrow=classic;endFill=1;" parent="1" source="2OwhBHev8sDwJyNuz14D-19" target="2OwhBHev8sDwJyNuz14D-21" edge="1">
                    <mxGeometry relative="1" as="geometry"/>
                </mxCell>
                <mxCell id="2OwhBHev8sDwJyNuz14D-24" style="edgeStyle=none;html=1;entryX=0.488;entryY=0.059;entryDx=0;entryDy=0;entryPerimeter=0;fontSize=10;startArrow=none;startFill=0;endArrow=classic;endFill=1;" parent="1" source="2OwhBHev8sDwJyNuz14D-19" target="2OwhBHev8sDwJyNuz14D-23" edge="1">
                    <mxGeometry relative="1" as="geometry"/>
                </mxCell>
                <mxCell id="2OwhBHev8sDwJyNuz14D-19" value="詳細取得失敗表示&lt;br&gt;" style="ellipse;shape=umlControl;whiteSpace=wrap;html=1;fontSize=10;" parent="1" vertex="1">
                    <mxGeometry x="420" y="320" width="70" height="80" as="geometry"/>
                </mxCell>
                <mxCell id="2OwhBHev8sDwJyNuz14D-21" value="詳細表示失敗画面" style="shape=umlBoundary;whiteSpace=wrap;html=1;fontSize=10;" parent="1" vertex="1">
                    <mxGeometry x="210" y="380" width="100" height="80" as="geometry"/>
                </mxCell>
                <mxCell id="2OwhBHev8sDwJyNuz14D-26" style="edgeStyle=none;html=1;entryX=1.013;entryY=0.475;entryDx=0;entryDy=0;entryPerimeter=0;fontSize=10;startArrow=none;startFill=0;endArrow=classic;endFill=1;" parent="1" source="2OwhBHev8sDwJyNuz14D-23" target="2OwhBHev8sDwJyNuz14D-25" edge="1">
                    <mxGeometry relative="1" as="geometry"/>
                </mxCell>
                <mxCell id="2OwhBHev8sDwJyNuz14D-23" value="ユーザー詳細失敗表示" style="ellipse;shape=umlControl;whiteSpace=wrap;html=1;fontSize=10;" parent="1" vertex="1">
                    <mxGeometry x="420" y="480" width="70" height="80" as="geometry"/>
                </mxCell>
                <mxCell id="2OwhBHev8sDwJyNuz14D-25" value="ユーザー選択表示失敗画面" style="shape=umlBoundary;whiteSpace=wrap;html=1;fontSize=10;" parent="1" vertex="1">
                    <mxGeometry x="220" y="570" width="100" height="80" as="geometry"/>
                </mxCell>
                <mxCell id="rkJxTzPNqQ1IbLJDLVaX-2" value="ユーザーを選択する" style="text;html=1;align=center;verticalAlign=middle;resizable=0;points=[];autosize=1;strokeColor=none;fillColor=none;fontSize=10;" parent="1" vertex="1">
                    <mxGeometry x="110" y="215" width="110" height="30" as="geometry"/>
                </mxCell>
            </root>
        </mxGraphModel>
    </diagram>
    <diagram id="rO8PL6kykNN0rGJrDtcg" name="ユーザー登録情報削除">
        <mxGraphModel dx="1403" dy="419" grid="1" gridSize="10" guides="1" tooltips="1" connect="1" arrows="1" fold="1" page="1" pageScale="1" pageWidth="827" pageHeight="1169" math="0" shadow="0">
            <root>
                <mxCell id="0"/>
                <mxCell id="1" parent="0"/>
                <mxCell id="r5N7Shbcl1KLHTW5RaJ6-2" style="edgeStyle=none;html=1;entryX=0.005;entryY=0.497;entryDx=0;entryDy=0;entryPerimeter=0;fontSize=10;startArrow=none;startFill=0;endArrow=classic;endFill=1;" parent="1" source="r5N7Shbcl1KLHTW5RaJ6-3" target="r5N7Shbcl1KLHTW5RaJ6-15" edge="1">
                    <mxGeometry relative="1" as="geometry"/>
                </mxCell>
                <mxCell id="zDCRPXhgbrQriVp6kmGj-12" style="edgeStyle=none;html=1;entryX=-0.012;entryY=0.497;entryDx=0;entryDy=0;entryPerimeter=0;fontSize=10;startArrow=none;startFill=0;endArrow=classic;endFill=1;" parent="1" source="r5N7Shbcl1KLHTW5RaJ6-3" target="zDCRPXhgbrQriVp6kmGj-5" edge="1">
                    <mxGeometry relative="1" as="geometry"/>
                </mxCell>
                <mxCell id="r5N7Shbcl1KLHTW5RaJ6-3" value="システム管理者" style="shape=umlActor;verticalLabelPosition=bottom;verticalAlign=top;html=1;outlineConnect=0;fontSize=14;" parent="1" vertex="1">
                    <mxGeometry x="10" y="150" width="60" height="130" as="geometry"/>
                </mxCell>
                <mxCell id="r5N7Shbcl1KLHTW5RaJ6-6" style="edgeStyle=none;html=1;fontSize=10;startArrow=none;startFill=0;endArrow=classic;endFill=1;" parent="1" source="r5N7Shbcl1KLHTW5RaJ6-8" target="r5N7Shbcl1KLHTW5RaJ6-15" edge="1">
                    <mxGeometry relative="1" as="geometry">
                        <mxPoint x="481.32916022899167" y="194.62015283718506" as="targetPoint"/>
                    </mxGeometry>
                </mxCell>
                <mxCell id="r5N7Shbcl1KLHTW5RaJ6-8" value="情報の取得" style="ellipse;shape=umlControl;whiteSpace=wrap;html=1;fontSize=10;" parent="1" vertex="1">
                    <mxGeometry x="470" y="130" width="70" height="80" as="geometry"/>
                </mxCell>
                <mxCell id="r5N7Shbcl1KLHTW5RaJ6-9" value="登録情報" style="ellipse;shape=umlEntity;whiteSpace=wrap;html=1;fontSize=10;" parent="1" vertex="1">
                    <mxGeometry x="660" y="130" width="80" height="80" as="geometry"/>
                </mxCell>
                <mxCell id="r5N7Shbcl1KLHTW5RaJ6-10" value="" style="endArrow=classic;startArrow=classic;html=1;fontSize=10;entryX=0;entryY=0.5;entryDx=0;entryDy=0;" parent="1" source="r5N7Shbcl1KLHTW5RaJ6-8" target="r5N7Shbcl1KLHTW5RaJ6-9" edge="1">
                    <mxGeometry width="50" height="50" relative="1" as="geometry">
                        <mxPoint x="630" y="240" as="sourcePoint"/>
                        <mxPoint x="520" y="290" as="targetPoint"/>
                    </mxGeometry>
                </mxCell>
                <mxCell id="zDCRPXhgbrQriVp6kmGj-3" style="edgeStyle=none;html=1;fontSize=10;startArrow=none;startFill=0;endArrow=classic;endFill=1;" parent="1" source="r5N7Shbcl1KLHTW5RaJ6-15" target="zDCRPXhgbrQriVp6kmGj-2" edge="1">
                    <mxGeometry relative="1" as="geometry"/>
                </mxCell>
                <mxCell id="r5N7Shbcl1KLHTW5RaJ6-15" value="ユーザー情報&lt;br&gt;確認詳細画面" style="shape=umlBoundary;whiteSpace=wrap;html=1;fontSize=10;" parent="1" vertex="1">
                    <mxGeometry x="220" y="190" width="100" height="80" as="geometry"/>
                </mxCell>
                <mxCell id="zDCRPXhgbrQriVp6kmGj-1" value="削除ボタンを押す" style="text;html=1;align=center;verticalAlign=middle;resizable=0;points=[];autosize=1;strokeColor=none;fillColor=none;fontSize=10;" parent="1" vertex="1">
                    <mxGeometry x="110" y="225" width="100" height="30" as="geometry"/>
                </mxCell>
                <mxCell id="zDCRPXhgbrQriVp6kmGj-7" style="edgeStyle=none;html=1;fontSize=10;startArrow=none;startFill=0;endArrow=classic;endFill=1;" parent="1" source="zDCRPXhgbrQriVp6kmGj-2" target="zDCRPXhgbrQriVp6kmGj-5" edge="1">
                    <mxGeometry relative="1" as="geometry"/>
                </mxCell>
                <mxCell id="zDCRPXhgbrQriVp6kmGj-2" value="情報の取得" style="ellipse;shape=umlControl;whiteSpace=wrap;html=1;fontSize=10;" parent="1" vertex="1">
                    <mxGeometry x="220" y="315" width="70" height="80" as="geometry"/>
                </mxCell>
                <mxCell id="zDCRPXhgbrQriVp6kmGj-10" style="edgeStyle=none;html=1;fontSize=10;startArrow=none;startFill=0;endArrow=classic;endFill=1;" parent="1" source="zDCRPXhgbrQriVp6kmGj-5" target="zDCRPXhgbrQriVp6kmGj-9" edge="1">
                    <mxGeometry relative="1" as="geometry"/>
                </mxCell>
                <mxCell id="zDCRPXhgbrQriVp6kmGj-5" value="ユーザー情報&lt;br&gt;確認詳細画面" style="shape=umlBoundary;whiteSpace=wrap;html=1;fontSize=10;" parent="1" vertex="1">
                    <mxGeometry x="180" y="460" width="100" height="80" as="geometry"/>
                </mxCell>
                <mxCell id="zDCRPXhgbrQriVp6kmGj-6" value="ユーザー情報&lt;br&gt;確認詳細画面" style="shape=umlBoundary;whiteSpace=wrap;html=1;fontSize=10;" parent="1" vertex="1">
                    <mxGeometry x="480" y="620" width="100" height="80" as="geometry"/>
                </mxCell>
                <mxCell id="zDCRPXhgbrQriVp6kmGj-11" style="edgeStyle=none;html=1;fontSize=10;startArrow=none;startFill=0;endArrow=classic;endFill=1;" parent="1" source="zDCRPXhgbrQriVp6kmGj-9" target="zDCRPXhgbrQriVp6kmGj-6" edge="1">
                    <mxGeometry relative="1" as="geometry"/>
                </mxCell>
                <mxCell id="zDCRPXhgbrQriVp6kmGj-9" value="情報の取得" style="ellipse;shape=umlControl;whiteSpace=wrap;html=1;fontSize=10;" parent="1" vertex="1">
                    <mxGeometry x="370" y="545" width="70" height="80" as="geometry"/>
                </mxCell>
                <mxCell id="zDCRPXhgbrQriVp6kmGj-13" value="削除のポップアップを選択する" style="text;html=1;align=center;verticalAlign=middle;resizable=0;points=[];autosize=1;strokeColor=none;fillColor=none;fontSize=10;" parent="1" vertex="1">
                    <mxGeometry x="20" y="365" width="160" height="30" as="geometry"/>
                </mxCell>
            </root>
        </mxGraphModel>
    </diagram>
</mxfile>